<?xml version="1.0" encoding="UTF-8"?>
<svg width="400" height="300" viewBox="0 0 400 300" fill="none" xmlns="http://www.w3.org/2000/svg">
  <g filter="url(#filter0_d)">
    <path d="M240 140C240 117.909 222.091 100 200 100C177.909 100 160 117.909 160 140V160L140 180V190H260V180L240 160V140Z" fill="#30AAB9" opacity="0.1" />
    <path d="M200 210C209.941 210 218 201.941 218 192H182C182 201.941 190.059 210 200 210Z" fill="#30AAB9" opacity="0.2" />
    <path d="M240 140C240 117.909 222.091 100 200 100C177.909 100 160 117.909 160 140V160L140 180V190H260V180L240 160V140Z" stroke="#30AAB9" stroke-width="2" />
    <path d="M200 210C209.941 210 218 201.941 218 192H182C182 201.941 190.059 210 200 210Z" stroke="#30AAB9" stroke-width="2" />
    <circle cx="200" cy="80" r="10" fill="#30AAB9" />
    <path d="M240 100L250 90" stroke="#30AAB9" stroke-width="2" />
    <path d="M250 160L260 170" stroke="#30AAB9" stroke-width="2" />
    <path d="M150 160L140 170" stroke="#30AAB9" stroke-width="2" />
    <path d="M150 100L140 90" stroke="#30AAB9" stroke-width="2" />
    <circle cx="260" cy="170" r="5" fill="#30AAB9" opacity="0.5" />
    <circle cx="140" cy="170" r="5" fill="#30AAB9" opacity="0.5" />
    <circle cx="140" cy="90" r="5" fill="#30AAB9" opacity="0.5" />
    <circle cx="250" cy="90" r="5" fill="#30AAB9" opacity="0.5" />
  </g>
  <defs>
    <filter id="filter0_d" x="85" y="25" width="230" height="230" filterUnits="userSpaceOnUse" color-interpolation-filters="sRGB">
      <feFlood flood-opacity="0" result="BackgroundImageFix" />
      <feColorMatrix in="SourceAlpha" type="matrix" values="0 0 0 0 0 0 0 0 0 0 0 0 0 0 0 0 0 0 127 0" />
      <feOffset />
      <feGaussianBlur stdDeviation="25" />
      <feColorMatrix type="matrix" values="0 0 0 0 0.2 0 0 0 0 0.2 0 0 0 0 0.2 0 0 0 0.1 0" />
      <feBlend mode="normal" in2="BackgroundImageFix" result="effect1_dropShadow" />
      <feBlend mode="normal" in="SourceGraphic" in2="effect1_dropShadow" result="shape" />
    </filter>
  </defs>
</svg>