<?xml version="1.0" encoding="UTF-8"?>
<svg width="300" height="200" viewBox="0 0 300 200" fill="none" xmlns="http://www.w3.org/2000/svg">
  <!-- Waves in the background -->
  <path d="M0,80 C60,60 90,100 150,80 C210,60 240,100 300,80 L300,200 L0,200 Z" fill="#E9F5F7" />
  <path d="M0,90 C60,70 90,110 150,90 C210,70 240,110 300,90" stroke="#30AAB9" stroke-width="2" fill="none" />
  <path d="M0,110 C60,90 90,130 150,110 C210,90 240,130 300,110" stroke="#30AAB9" stroke-width="2" fill="none" />
  
  <!-- App Logo -->
  <circle cx="150" cy="100" r="40" fill="#30AAB9" />
  <text x="150" y="110" font-family="Arial" font-size="40" fill="white" text-anchor="middle">b</text>

  <!-- Image avatars -->
  <circle cx="50" cy="100" r="25" fill="white" stroke="#30AAB9" stroke-width="2" />
  <circle cx="100" cy="100" r="25" fill="white" stroke="#30AAB9" stroke-width="2" />
  <circle cx="200" cy="100" r="25" fill="white" stroke="#30AAB9" stroke-width="2" />
  <circle cx="250" cy="100" r="25" fill="white" stroke="#30AAB9" stroke-width="2" />
</svg>